<?xml version="1.0" encoding="utf-8"?>
<!-- Generator: Adobe Illustrator 21.0.0, SVG Export Plug-In . SVG Version: 6.00 Build 0)  -->
<svg version="1.1" id="Слой_1" xmlns="http://www.w3.org/2000/svg" xmlns:xlink="http://www.w3.org/1999/xlink" x="0px" y="0px"
	 viewBox="0 0 238 282.5" style="enable-background:new 0 0 238 282.5;" xml:space="preserve">
<style type="text/css">
	.st0{fill:#0179FF;}
	.st1{filter:url(#Adobe_OpacityMaskFilter);}
	.st2{fill:#FFFFFF;}
	.st3{mask:url(#b_1_);fill:#FFFFFF;}
	.st4{filter:url(#Adobe_OpacityMaskFilter_1_);}
	.st5{mask:url(#d_1_);fill:#FFFFFF;}
	.st6{filter:url(#Adobe_OpacityMaskFilter_2_);}
	.st7{mask:url(#f_1_);fill:#FFFFFF;}
	.st8{fill:#43D167;}
	.st9{fill:#FE7840;}
</style>
<g transform="rotate(-17 49 49)">
	<ellipse transform="matrix(0.9563 -0.2924 0.2924 0.9563 -13.1645 20.7164)" class="st0" cx="62.7" cy="54.4" rx="49" ry="49"/>
	<g transform="translate(24 25.895)">
		<defs>
			<filter id="Adobe_OpacityMaskFilter" filterUnits="userSpaceOnUse" x="12.6" y="12.3" width="53.4" height="12.4">
				<feColorMatrix  type="matrix" values="1 0 0 0 0  0 1 0 0 0  0 0 1 0 0  0 0 0 1 0"/>
			</filter>
		</defs>
		<mask maskUnits="userSpaceOnUse" x="12.6" y="12.3" width="53.4" height="12.4" id="b_1_">
			<g class="st1">
				<path id="a_1_" class="st2" d="M13.7,5.5l49.1,0l0,20.6l-49.1,0L13.7,5.5z"/>
			</g>
		</mask>
		<path class="st3" d="M58.7,26.1l-40.9,0c-2.3,0-4.1-1.8-4.1-4.1c0,0,0,0,0,0c0-4.1,5.6-16.5,24.6-16.5c19,0,24.6,12.4,24.6,16.5
			C62.8,24.3,61,26.1,58.7,26.1C58.7,26.1,58.7,26.1,58.7,26.1"/>
	</g>
	<g transform="translate(24 49.895)">
		<defs>
			<filter id="Adobe_OpacityMaskFilter_1_" filterUnits="userSpaceOnUse" x="13" y="7" width="50.5" height="3.7">
				<feColorMatrix  type="matrix" values="1 0 0 0 0  0 1 0 0 0  0 0 1 0 0  0 0 0 1 0"/>
			</filter>
		</defs>
		<mask maskUnits="userSpaceOnUse" x="13" y="7" width="50.5" height="3.7" id="d_1_">
			<g class="st4">
				<path id="c_1_" class="st2" d="M13.7,11.6l0-5.6l49.1,0l0,5.6L13.7,11.6z"/>
			</g>
		</mask>
		<path class="st5" d="M60.1,11.6l-43.5,0c-1.5,0-2.8-1.2-2.8-2.8c0-1.5,1.2-2.8,2.8-2.8l43.5,0c1.5,0,2.8,1.2,2.8,2.8
			C62.8,10.4,61.6,11.6,60.1,11.6"/>
	</g>
	<g transform="translate(24 59.895)">
		<defs>
			<filter id="Adobe_OpacityMaskFilter_2_" filterUnits="userSpaceOnUse" x="12.9" y="6.9" width="51" height="4.9">
				<feColorMatrix  type="matrix" values="1 0 0 0 0  0 1 0 0 0  0 0 1 0 0  0 0 0 1 0"/>
			</filter>
		</defs>
		<mask maskUnits="userSpaceOnUse" x="12.9" y="6.9" width="51" height="4.9" id="f_1_">
			<g class="st6">
				<path id="e_1_" class="st2" d="M62.8,5.6v8.8l-49.1,0l0-8.8L62.8,5.6z"/>
			</g>
		</mask>
		<path class="st7" d="M58.7,5.6l-40.9,0c-2.3,0-4.1,1.8-4.1,4.1c0,4.1,5.6,4.7,24.6,4.7c19,0,24.6-0.6,24.6-4.7
			C62.8,7.4,61,5.6,58.7,5.6C58.7,5.6,58.7,5.6,58.7,5.6"/>
	</g>
	<path class="st2" d="M62.7,66.6c-1,0-2-0.4-2.7-1.1L49.6,55l26.3,0L65.4,65.4C64.7,66.2,63.7,66.6,62.7,66.6"/>
	<path class="st0" d="M78.2,54l-31,0l3.4,3.4l8.8,8.8c0.9,0.9,2.1,1.4,3.4,1.4c1.3,0,2.5-0.5,3.4-1.4l8.8-8.8
		C74.9,57.3,78.2,54,78.2,54z M73.5,56l-8.8,8.8c-0.5,0.5-1.2,0.8-2,0.8c-0.7,0-1.4-0.3-2-0.8L52,56L73.5,56z"/>
</g>
<g>
	<ellipse transform="matrix(0.7193 -0.6947 0.6947 0.7193 -54.8631 173.8849)" class="st8" cx="187.8" cy="154.8" rx="49" ry="49"/>
	<g>
		<path class="st2" d="M183.3,151l-15.5,2c-3.8,0.5-6.5,4-6,7.8c0,0,0,0,0,0l20.3-2.6L183.3,151L183.3,151z"/>
		<path class="st2" d="M180.9,180.5c3.8,0.6,7.4-1.9,8-5.7c0,0,0,0,0,0l2.9-17.8l7.5-1c0.5-0.1,1.1,0.1,1.4,0.5l0.3,0.3
			c3.4,3.5,9.1,3.3,12.2-0.5c2.4-2.9,2.5-7.2,0.2-10.3c-3-3.9-8.8-4.3-12.2-0.9c-0.8,0.8-1.5,1.8-1.9,2.8c-0.3,0.6-0.8,1-1.4,1.1
			l-5,0.6l0.8-5c0.1-0.6,0.5-1.2,1.2-1.3c1.4-0.5,2.7-1.4,3.7-2.6c2.2-2.9,2.4-7,0.2-9.9c-3.5-4.7-10.6-4.6-13.7,0.6
			c-1.9,3.2-1.4,7.3,1.2,10l0.2,0.3c0.4,0.4,0.6,0.9,0.4,1.5C187.1,143.1,180.9,180.5,180.9,180.5z M204.7,148.6
			c1.4-1.3,3.5-1.3,4.8,0.1c1.3,1.3,1.2,3.5-0.1,4.8c-1.4,1.3-3.5,1.3-4.8-0.1C203.3,152,203.4,149.9,204.7,148.6z M189.9,133.2
			c1.4-1.3,3.5-1.3,4.8,0.1c1.3,1.3,1.2,3.5-0.1,4.8c-1.4,1.3-3.5,1.3-4.8-0.1C188.5,136.7,188.5,134.5,189.9,133.2z"/>
	</g>
</g>
<g>
	<ellipse transform="matrix(0.1219 -0.9925 0.9925 0.1219 -186.8181 255.76)" class="st9" cx="51.1" cy="233.5" rx="49" ry="49"/>
	<g>
		<path class="st2" d="M69.4,217.2l-38.5,30.1l3.9,5l38.5-30.1L69.4,217.2z"/>
		<g transform="rotate(52 -5.612 52.377)">
			
				<ellipse transform="matrix(0.788 -0.6157 0.6157 0.788 -40.9343 119.7404)" class="st2" cx="153.4" cy="119.3" rx="7.2" ry="7.2"/>
			
				<ellipse transform="matrix(0.788 -0.6157 0.6157 0.788 -32.5605 144.0596)" class="st2" cx="192.9" cy="119.3" rx="7.2" ry="7.2"/>
		</g>
	</g>
</g>
</svg>
