<?xml version="1.0" encoding="UTF-8"?>
<svg width="530px" height="311px" viewBox="0 0 530 311" version="1.1" xmlns="http://www.w3.org/2000/svg" xmlns:xlink="http://www.w3.org/1999/xlink">
    <!-- Generator: Sketch 46.2 (44496) - http://www.bohemiancoding.com/sketch -->
    <title>Group 10</title>
    <desc>Created with Sketch.</desc>
    <defs>
        <circle id="path-1" cx="449.699219" cy="104" r="6"></circle>
        <circle id="path-2" cx="75" cy="198.90625" r="6"></circle>
        <path d="M65.3312924,49.1478902 L105.5,49.1478902 C108.813708,49.1478902 111.5,46.4615987 111.5,43.1478902 L111.5,6 C111.5,2.6862915 108.813708,2.79460044e-16 105.5,8.8817842e-16 L105.5,0 L6.5,0 L6.5,8.8817842e-16 C3.1862915,1.4968968e-15 0.5,2.6862915 0.5,6 L0.5,6 L0.5,43.1478902 C0.5,46.4615987 3.1862915,49.1478902 6.5,49.1478902 L6.5,49.1478902 L46.5407015,49.1478902 L53.8146766,56.4218652 C54.9862495,57.5934381 56.8857444,57.5934381 58.0573173,56.4218652 L58.0573173,56.4218652 L65.3312924,49.1478902 Z" id="path-3"></path>
        <filter x="-18.0%" y="-27.9%" width="136.0%" height="169.8%" filterUnits="objectBoundingBox" id="filter-4">
            <feOffset dx="0" dy="4" in="SourceAlpha" result="shadowOffsetOuter1"></feOffset>
            <feGaussianBlur stdDeviation="6" in="shadowOffsetOuter1" result="shadowBlurOuter1"></feGaussianBlur>
            <feColorMatrix values="0 0 0 0 0.802694515   0 0 0 0 0.802694515   0 0 0 0 0.802694515  0 0 0 0.5 0" type="matrix" in="shadowBlurOuter1"></feColorMatrix>
        </filter>
        <path d="M64.3312924,49.1478902 L103.5,49.1478902 C106.813708,49.1478902 109.5,46.4615987 109.5,43.1478902 L109.5,43.1478902 L109.5,6 C109.5,2.6862915 106.813708,-8.55003309e-15 103.5,8.8817842e-16 L103.5,0 L6.5,0 L6.5,8.8817842e-16 C3.1862915,1.4968968e-15 0.5,2.6862915 0.5,6 L0.5,6 L0.5,43.1478902 C0.5,46.4615987 3.1862915,49.1478902 6.5,49.1478902 L6.5,49.1478902 L45.5407015,49.1478902 L52.8146766,56.4218652 C53.9862495,57.5934381 55.8857444,57.5934381 57.0573173,56.4218652 L57.0573173,56.4218652 L64.3312924,49.1478902 Z" id="path-5"></path>
        <filter x="-18.3%" y="-27.9%" width="136.7%" height="169.8%" filterUnits="objectBoundingBox" id="filter-6">
            <feOffset dx="0" dy="4" in="SourceAlpha" result="shadowOffsetOuter1"></feOffset>
            <feGaussianBlur stdDeviation="6" in="shadowOffsetOuter1" result="shadowBlurOuter1"></feGaussianBlur>
            <feColorMatrix values="0 0 0 0 0.802694515   0 0 0 0 0.802694515   0 0 0 0 0.802694515  0 0 0 0.5 0" type="matrix" in="shadowBlurOuter1"></feColorMatrix>
        </filter>
    </defs>
    <g id="design-3" stroke="none" stroke-width="1" fill="none" fill-rule="evenodd">
        <g id="franchise_v2" transform="translate(-536.000000, -2183.000000)">
            <g id="Group-10" transform="translate(537.000000, 2178.000000)">
                <g id="Group-15" transform="translate(0.000000, 61.000000)">
                    <text id="2017" font-family="Raleway-Medium, Raleway" font-size="15" font-weight="400" line-spacing="22" fill="#8C8C8C">
                        <tspan x="436.18374" y="251.243109">2017</tspan>
                    </text>
                    <g id="Group-13">
                        <text id="2013" font-family="Raleway-Medium, Raleway" font-size="15" font-weight="400" line-spacing="22" fill="#8C8C8C">
                            <tspan x="55.1023324" y="251.243109">2013</tspan>
                        </text>
                        <text id="2014" font-family="Raleway-Medium, Raleway" font-size="15" font-weight="400" line-spacing="22" fill="#8C8C8C">
                            <tspan x="148.821523" y="251.243109">2014</tspan>
                        </text>
                        <text id="2015" font-family="Raleway-Medium, Raleway" font-size="15" font-weight="400" line-spacing="22" fill="#8C8C8C">
                            <tspan x="244.170612" y="251.243109">2015</tspan>
                        </text>
                        <text id="2016" font-family="Raleway-Medium, Raleway" font-size="15" font-weight="400" line-spacing="22" fill="#8C8C8C">
                            <tspan x="339.519701" y="251.243109">2016</tspan>
                        </text>
                        <path d="M75.5684801,140.456876 L75.5684801,216.491819" id="Line-2-Copy-3" stroke="#C6C6C6" stroke-linecap="square" stroke-dasharray="2,2"></path>
                        <path d="M168.526963,127.450352 L168.526963,216.491819" id="Line-2-Copy-4" stroke="#C6C6C6" stroke-linecap="square" stroke-dasharray="2,2"></path>
                        <path d="M262.526963,108.459084 L262.526963,216.491819" id="Line-2-Copy-5" stroke="#C6C6C6" stroke-linecap="square" stroke-dasharray="2,2"></path>
                        <path d="M356.526963,81.4964932 L356.526963,216.491819" id="Line-2-Copy-6" stroke="#C6C6C6" stroke-linecap="square" stroke-dasharray="2,2"></path>
                        <path d="M450.526963,41.4293507 L450.526963,216.491819" id="Line-2-Copy-7" stroke="#C6C6C6" stroke-linecap="square" stroke-dasharray="2,2"></path>
                        <path d="M528.508573,216.491819 L0.705440213,216.491819" id="Line-2-Copy-3" stroke="#C6C6C6" stroke-linecap="square" stroke-dasharray="2,2"></path>
                        <path d="M0,141.281084 C206.329732,137.752053 381.329732,90.6583588 525,0" id="Path-3" stroke="#FE7840" stroke-width="4"></path>
                    </g>
                </g>
                <g id="Oval-3">
                    <use fill="#FFFFFF" fill-rule="evenodd" xlink:href="#path-1"></use>
                    <circle stroke-opacity="0.147305254" stroke="#FE7840" stroke-width="12" cx="449.699219" cy="104" r="12"></circle>
                    <use stroke="#FE7840" stroke-width="4" xlink:href="#path-1"></use>
                </g>
                <g id="Oval-3">
                    <use fill="#FFFFFF" fill-rule="evenodd" xlink:href="#path-2"></use>
                    <circle stroke-opacity="0.147305254" stroke="#FE7840" stroke-width="12" cx="75" cy="198.90625" r="12"></circle>
                    <use stroke="#FE7840" stroke-width="4" xlink:href="#path-2"></use>
                </g>
                <g id="Group-16" transform="translate(18.929688, 110.000000)">
                    <g id="Combined-Shape">
                        <use fill="black" fill-opacity="1" filter="url(#filter-4)" xlink:href="#path-3"></use>
                        <use fill="#FFFFFF" fill-rule="evenodd" xlink:href="#path-3"></use>
                    </g>
                    <text id="0,9-млн." font-family="Raleway-Medium, Raleway" font-size="18" font-weight="400" fill="#171717">
                        <tspan x="24.561" y="29">0,9 млн.</tspan>
                    </text>
                </g>
                <g id="Group-16" transform="translate(395.202820, 15.000000)">
                    <g id="Combined-Shape">
                        <use fill="black" fill-opacity="1" filter="url(#filter-6)" xlink:href="#path-5"></use>
                        <use fill="#FFFFFF" fill-rule="evenodd" xlink:href="#path-5"></use>
                    </g>
                    <text id="1,5-млн." font-family="Raleway-Medium, Raleway" font-size="18" font-weight="400" fill="#171717">
                        <tspan x="26.234" y="29">1,5 млн.</tspan>
                    </text>
                </g>
                <text id="Количество-активных" font-family="Raleway-Medium, Raleway" font-size="15" font-weight="400" line-spacing="22" fill="#8C8C8C">
                    <tspan x="7" y="15">Количество активных покупателей</tspan>
                    <tspan x="7" y="37">за 2013-2017 гг.</tspan>
                </text>
            </g>
        </g>
    </g>
</svg>