<svg xmlns="http://www.w3.org/2000/svg" width="19" height="11" viewBox="0 0 19 11">
    <path fill="#171717" fill-rule="evenodd" d="M9.131 10.58h1.116s.337-.038.51-.223c.157-.17.152-.489.152-.489s-.021-1.493.673-1.713c.685-.217 1.564 1.443 2.497 2.082.704.483 1.24.377 1.24.377l2.492-.035s1.304-.08.686-1.103c-.05-.084-.36-.757-1.853-2.14-1.563-1.447-1.354-1.213.529-3.716 1.146-1.525 1.605-2.455 1.461-2.854-.136-.38-.98-.28-.98-.28l-2.806.018s-.208-.029-.362.064c-.15.09-.248.3-.248.3s-.444 1.18-1.036 2.183c-1.25 2.117-1.75 2.23-1.954 2.098-.475-.307-.356-1.231-.356-1.888 0-2.052.312-2.907-.608-3.129C9.98.06 9.754.01 8.974.002c-1-.01-1.848.003-2.328.238-.32.156-.566.504-.415.524.185.024.605.113.828.415.287.39.277 1.267.277 1.267s.166 2.415-.386 2.715c-.378.206-.897-.214-2.01-2.135C4.367 2.042 3.936.955 3.936.955S3.854.75 3.707.643C3.526.51 3.274.469 3.274.469L.608.486s-.4.012-.547.185c-.13.155-.01.474-.01.474s2.087 4.874 4.451 7.33c2.168 2.252 4.63 2.104 4.63 2.104"/>
</svg>
