<svg xmlns="http://www.w3.org/2000/svg" width="64" height="65" viewBox="0 0 64 65">
    <g fill="none" fill-rule="evenodd">
        <circle cx="32" cy="32.695" r="32" fill="#FE7840"/>
        <path fill="#FFF" d="M34.203 21.242a2.03 2.03 0 0 0-2.768-.761 2.148 2.148 0 0 0-.302.213l5.075 9.067a.381.381 0 0 1-.006.027l-.827.526-.028-.007-5.19-9.273-2.174-3.82c-.53-.931-1.686-1.384-2.66-.937a2.03 2.03 0 0 0-.922 2.851l5.704 10.024c.008.014-.005.032-.023.03l.063.259a8.297 8.297 0 0 0-2.368-.344c-3.172 0-6.032 1.787-7.326 4.565-.415.893-.187 1.989.631 2.54a1.97 1.97 0 0 0 2.91-.824c.635-1.426 2.121-2.347 3.785-2.347 1.693 0 3.15.958 3.77 2.317l.312 1.313c.001.019.004.036.006.053.061 2.133-1.796 3.887-4.088 3.887a4.28 4.28 0 0 1-2.653-.906c-.775-.612-1.91-.605-2.623.079-.873.84-.79 2.221.12 2.957 1.44 1.163 3.281 1.625 5.156 1.804a6.764 6.764 0 0 0 3.125-.431c1.527-.596 3.259-.05 4.107 1.352l1.134 2.05.028.007 9.137-4.917.008-.028-11.113-21.326z"/>
    </g>
</svg>
