<svg xmlns="http://www.w3.org/2000/svg" width="128" height="48" viewBox="0 0 128 48">
    <g fill="none" fill-rule="evenodd">
        <path fill="#FF7642" d="M0 0h127.636v39.692L64.337 48 0 39.692z"/>
        <path fill="#FFF" d="M28.566 25.596c0 3.346-1.727 4.492-4.47 4.492h-9.67V13.44h9.6c3.378 0 4.23 1.382 4.23 3.99 0 2.316-.581 3.654-3.62 3.89 3.229.148 3.935 1.673 3.935 4.275h-.005zm-10.231-5.73h4.62c.75 0 1.096-.429 1.096-1.58s-.34-1.574-1.096-1.574h-4.62v3.153zm4.74 6.946l-4.74.014v-3.822h4.65c.87 0 1.336.605 1.336 1.968 0 1.289-.415 1.84-1.246 1.84zm8.924-13.371h3.914v16.647H32V13.44zm17.554 9.814h-3.369v-3.296h7.373v9.676c-2.106.523-4.27.787-6.442.787-5.445 0-8.008-2.026-8.008-8.815s3.063-8.575 8.704-8.575c1.784.005 3.562.205 5.3.595l-.71 3.39a19.576 19.576 0 0 0-4.2-.492c-3.653 0-4.915.492-4.915 5.111 0 4.62 1.262 5.225 4.655 5.225a15.854 15.854 0 0 0 1.612-.118v-3.488zM61.11 13.44v13.257h7.633v3.385H57.196V13.44h3.914zm9.53 0h3.91v16.647h-3.91V13.44zm23.57 8.126c0 6.858-2.812 8.855-8.233 8.855-5.42 0-8.239-1.967-8.239-8.855 0-6.759 2.798-8.55 8.239-8.55 5.44 0 8.234 1.806 8.234 8.55zm-4.174.05c0-4.541-.63-5.067-4.064-5.067s-4.06.526-4.06 5.067c0 4.54.636 5.278 4.06 5.278 3.424 0 4.064-.669 4.064-5.278zm22.7 8.47h-4.86c-2.093-3.797-4.355-7.62-6.658-11.363v11.364h-3.844V13.44h5.105a200.718 200.718 0 0 1 6.362 10.965V13.44h3.894v16.647z"/>
    </g>
</svg>
