<?xml version="1.0" encoding="utf-8"?>
<!-- Generator: Adobe Illustrator 21.0.0, SVG Export Plug-In . SVG Version: 6.00 Build 0)  -->
<svg version="1.1" id="Слой_1" xmlns="http://www.w3.org/2000/svg" xmlns:xlink="http://www.w3.org/1999/xlink" x="0px" y="0px"
	 viewBox="0 0 42.4 24.8" style="enable-background:new 0 0 42.4 24.8;" xml:space="preserve">
<style type="text/css">
	.st0{fill:#FFFFFF;}
	.st1{filter:url(#Adobe_OpacityMaskFilter);}
	.st2{mask:url(#b_1_);fill:#FFFFFF;}
</style>
<g>
	<path class="st0" d="M16.4,12.3c0-2.7,2.2-4,2.3-4c-1.3-1.8-3.2-2.1-3.9-2.1c-1.6-0.2-3.2,1-4,1c-0.8,0-2.1-1-3.5-0.9
		c-1.8,0-3.4,1.1-4.3,2.7c-1.9,3.3-0.5,8,1.3,10.7c0.9,1.3,2,2.7,3.3,2.7c1.3-0.1,1.8-0.9,3.5-0.9c1.6,0,2.1,0.9,3.5,0.8
		c1.4,0,2.4-1.3,3.2-2.6c1-1.5,1.5-2.9,1.5-3C19.2,16.6,16.4,15.5,16.4,12.3z M13.7,4.5c0.7-0.9,1.2-2.1,1.1-3.4
		c-1,0-2.4,0.7-3.1,1.6C11,3.5,10.4,4.8,10.6,6C11.8,6.1,13,5.4,13.7,4.5L13.7,4.5z"/>
</g>
<g>
	<path class="st0" d="M24.6,4.5v17.1c0,0.1,0,0.2,0.1,0.3l8.6-8.7L24.6,4.5z M34.3,12.1l2.6-2.6L26.1,3.2c-0.2-0.1-0.5-0.2-0.7-0.1
		L34.3,12.1L34.3,12.1z"/>
	<g transform="translate(10.81 7.08)">
		<defs>
			<filter id="Adobe_OpacityMaskFilter" filterUnits="userSpaceOnUse" x="24.6" y="3.2" width="6.3" height="5.4">
				<feColorMatrix  type="matrix" values="1 0 0 0 0  0 1 0 0 0  0 0 1 0 0  0 0 0 1 0"/>
			</filter>
		</defs>
		<mask maskUnits="userSpaceOnUse" x="24.6" y="3.2" width="6.3" height="5.4" id="b_1_">
			<g class="st1">
				<path id="a_1_" class="st0" d="M30.9,3.2v5.4h-6.3V3.2H30.9L30.9,3.2z"/>
			</g>
		</mask>
		<path class="st2" d="M30.4,4.9l-2.9-1.7l-2.8,2.9L27,8.6l3.3-1.9c0.5-0.3,0.6-0.9,0.4-1.4C30.6,5.1,30.5,5,30.4,4.9"/>
	</g>
	<path class="st0" d="M34.3,14.3l-7.8,8l10-5.8L34.3,14.3z"/>
</g>
</svg>
