<svg xmlns="http://www.w3.org/2000/svg" xmlns:xlink="http://www.w3.org/1999/xlink" width="18" height="19" viewBox="0 0 18 19">
    <defs>
        <path id="a" d="M6.298.094v5.36H.01V.094h6.287z"/>
    </defs>
    <g fill="none" fill-rule="evenodd">
        <path fill="#FFF" d="M0 1.426v17.062c0 .113.02.219.052.317l8.594-8.733L0 1.426zM9.729 8.97l2.554-2.595L1.506.135a.985.985 0 0 0-.722-.11l8.945 8.946z"/>
        <g transform="translate(10.81 7.08)">
            <mask id="b" fill="#fff">
                <use xlink:href="#a"/>
            </mask>
            <path fill="#FFF" d="M5.797 1.798L2.854.094.01 2.984l2.47 2.47 3.316-1.92a1.003 1.003 0 0 0 0-1.736" mask="url(#b)"/>
        </g>
        <path fill="#FFF" d="M9.738 11.164l-7.833 7.96 10.003-5.79z"/>
    </g>
</svg>
